<svg width="172" height="54" viewBox="0 0 172 54" fill="none" xmlns="http://www.w3.org/2000/svg">
<path d="M38.1339 41.304H27.7179L18.4539 24.696L16.3419 23.4L17.5419 21.048H19.7499C21.4779 21.048 22.8379 20.52 23.8299 19.464C24.8219 18.408 25.3179 16.92 25.3179 15C25.3179 12.76 24.7099 10.936 23.4939 9.52802C22.3099 8.08802 20.5659 7.36802 18.2619 7.36802C16.8219 7.36802 15.4779 7.81602 14.2299 8.71202V36.696L19.5579 38.232L18.0219 41.352H1.02987V38.664L5.54187 34.872V8.23202L0.213867 6.74402L1.79787 3.62402H9.76587C12.5499 3.62402 15.2859 3.52802 17.9739 3.33602C19.8939 3.20802 21.3339 3.14402 22.2939 3.14402C24.7579 3.14402 26.9339 3.59202 28.8219 4.48802C30.7419 5.35202 32.2139 6.53602 33.2379 8.04002C34.2939 9.54402 34.8219 11.224 34.8219 13.08C34.8219 15.32 33.8299 17.4 31.8459 19.32C29.8619 21.24 27.4459 22.68 24.5979 23.64L28.4379 24.744L34.6779 35.88L39.6699 38.184L38.1339 41.304Z" fill="#FF853C"/>
<path d="M69.0785 41.304H58.1345V37.128L52.7105 41.4C52.0705 41.656 51.2705 41.784 50.3105 41.784C47.2385 41.784 45.0145 41.032 43.6385 39.528C42.2945 38.024 41.6225 36.216 41.6225 34.104C41.6225 32.856 42.0065 31.64 42.7745 30.456C43.5425 29.24 44.6465 28.12 46.0865 27.096H58.1345V26.28C58.1345 24.52 57.6545 23.224 56.6945 22.392C55.7345 21.56 54.4545 21.144 52.8545 21.144C50.6145 21.144 47.6865 22.024 44.0705 23.784L42.6305 21.048L49.3025 15.672C50.9345 15.192 52.8385 14.952 55.0145 14.952C58.5985 14.952 61.3665 15.768 63.3185 17.4C65.3025 19.032 66.2945 21.4 66.2945 24.504V36.504L70.6145 38.184L69.0785 41.304ZM52.7585 35.352C54.3905 35.352 56.1825 34.68 58.1345 33.336V30.264H50.4065C50.1505 30.648 49.9585 31.016 49.8305 31.368C49.7345 31.688 49.6865 32.056 49.6865 32.472C49.6865 33.272 49.9585 33.944 50.5025 34.488C51.0785 35.032 51.8305 35.304 52.7585 35.304V35.352Z" fill="#FF853C"/>
<path d="M89.1924 21.768C88.0404 21.768 86.8884 22.28 85.7364 23.304V36.264L93.0324 38.184L91.4964 41.304H73.3044V38.616L77.5764 35.016V24.12L73.3044 21.432V18.744L83.2884 14.52L85.1124 19.848L89.4804 15.336C90.1524 15.08 90.9364 14.952 91.8324 14.952C93.4964 14.952 94.9204 15.336 96.1044 16.104C97.3204 16.872 98.1684 17.928 98.6484 19.272L94.0404 25.032H91.0164C90.9844 23.88 90.8244 23.064 90.5364 22.584C90.2484 22.072 89.8004 21.816 89.1924 21.816V21.768Z" fill="#FF853C"/>
<path d="M115.8 41.304H100.632V38.616L104.904 35.016V23.88L100.632 21.048V18.36L110.04 14.52H113.064V36.744L117.384 38.184L115.8 41.304ZM108.936 0.0720215C110.312 0.0720215 111.432 0.520021 112.296 1.41602C113.192 2.28002 113.64 3.36802 113.64 4.68002C113.64 5.60802 113.32 6.47202 112.68 7.27202C112.04 8.07202 111.24 8.71202 110.28 9.19202C109.32 9.67202 108.392 9.91202 107.496 9.91202C106.152 9.91202 105.032 9.48002 104.136 8.61602C103.272 7.72002 102.84 6.61602 102.84 5.30402C102.84 4.37602 103.16 3.51202 103.8 2.71202C104.44 1.91202 105.224 1.27202 106.152 0.792021C107.112 0.312021 108.04 0.0720215 108.936 0.0720215Z" fill="#FF853C"/>
<path d="M136.402 41.4C135.314 41.656 134.018 41.784 132.514 41.784C129.442 41.784 127.186 41.096 125.746 39.72C124.338 38.312 123.634 36.152 123.634 33.24V20.04H118.45V17.496L128.77 6.26402H131.794V16.872H140.434V20.04H131.794V32.904C131.794 35.112 133.042 36.216 135.538 36.216C136.178 36.216 136.802 36.12 137.41 35.928C138.05 35.704 138.85 35.336 139.81 34.824L141.25 37.56L136.402 41.4Z" fill="#FF853C"/>
<path d="M171.786 18.072L159.498 41.256L148.218 53.928L145.194 51.576C147.562 48.728 149.226 46.28 150.186 44.232C151.146 42.216 151.69 39.896 151.818 37.272L146.298 23.928L141.642 21.24V18.552L152.25 14.52L154.074 21.768L159.306 34.536L165.114 23.208L158.25 18.552L159.786 15.432L171.786 15.384V18.072Z" fill="#FF853C"/>
</svg>
